<?xml version="1.0" encoding="utf-8"?>
<!-- Generator: Adobe Illustrator 22.1.0, SVG Export Plug-In . SVG Version: 6.00 Build 0)  -->
<svg version="1.1" id="Capa_1" xmlns="http://www.w3.org/2000/svg" xmlns:xlink="http://www.w3.org/1999/xlink" x="0px" y="0px"
	 viewBox="0 0 512 512" style="enable-background:new 0 0 512 512;" xml:space="preserve">
<style type="text/css">
	.st0{opacity:0.35;fill:#FFFFFF;}
	.st1{opacity:0.7;fill:#FFFFFF;}
	.st2{font-family:'AbeatbyKai';}
	.st3{font-size:33.7386px;}
</style>
<g>
	<g>
		<g>
			<path class="st0" d="M55,46h408c6.6,0,12,5.4,12,12v408c0,6.6-5.4,12-12,12H55c-6.6,0-12-5.4-12-12V58C43,51.4,48.4,46,55,46z"/>
			<path class="st1" d="M343.1,128.6L220.2,148c-3.1,0.5-5.5,3.2-5.5,6.4v21.3v17.6v88.5c-7.6-6.7-17.8-10.9-29.1-10.9
				c-23.2,0-42,17.4-42,38.8c0,21.4,18.9,38.8,42,38.8c22.8,0,41.5-16.9,42-37.9c0-0.1,0.1-0.2,0.1-0.2V198.7l109.9-17.4v61.5
				c-7.6-6.7-17.8-10.9-29.1-10.9c-23.2,0-42,17.4-42,38.8s18.9,38.8,42,38.8s42-17.4,42-38.8v-97v-32.3V135c0-1.9-0.8-3.7-2.3-4.9
				C346.8,128.9,345,128.3,343.1,128.6z M185.6,335.5c-16,0-29.1-11.6-29.1-25.9s13.1-25.9,29.1-25.9s29.1,11.6,29.1,25.9
				S201.7,335.5,185.6,335.5z M227.7,185.6v-10v-15.7l109.9-17.4v25.7L227.7,185.6z M308.5,296.7c-16,0-29.1-11.6-29.1-25.9
				s13.1-25.9,29.1-25.9c16,0,29.1,11.6,29.1,25.9S324.6,296.7,308.5,296.7z"/>
			<text transform="matrix(1 0 0 1 218.5317 395.3691)" class="st1 st2 st3">PLAY</text>
		</g>
	</g>
</g>
</svg>
