<?xml version="1.0"?>
<svg xmlns="http://www.w3.org/2000/svg" height="512px" viewBox="-16 0 479 480" width="512px" class=""><g><path d="m229.175781 105.441406c-2.777343-1.980468-6.503906-1.980468-9.28125 0l-216 152c-3.621093 2.5625-4.480469 7.574219-1.917969 11.199219 2.5625 3.621094 7.574219 4.480469 11.199219 1.917969l211.359375-148.796875 211.359375 148.796875c1.359375.949218 2.980469 1.453125 4.640625 1.441406 2.601563.015625 5.050782-1.238281 6.558594-3.359375 1.242188-1.738281 1.734375-3.898437 1.375-6-.359375-2.105469-1.546875-3.976563-3.292969-5.199219zm0 0" data-original="#000000" class="active-path" data-old_color="#ffffff" fill="#ffffff"/><path d="m13.175781 230.558594 211.359375-148.796875 211.359375 148.796875c1.359375.949218 2.980469 1.453125 4.640625 1.441406 2.601563.015625 5.050782-1.238281 6.558594-3.359375 1.242188-1.738281 1.734375-3.898437 1.375-6-.359375-2.105469-1.546875-3.976563-3.292969-5.199219l-212.640625-149.601562v-27.839844h16c4.417969 0 8-3.582031 8-8s-3.582031-8-8-8h-16v-16c0-4.417969-3.582031-8-8-8-4.417968 0-8 3.582031-8 8v16h-16c-4.417968 0-8 3.582031-8 8s3.582032 8 8 8h16v27.839844l-212.640625 149.601562c-3.621093 2.5625-4.480469 7.574219-1.917969 11.199219 2.5625 3.621094 7.574219 4.480469 11.199219 1.917969zm0 0" data-original="#000000" class="active-path" data-old_color="#ffffff" fill="#ffffff"/><path d="m222.613281 264c1.261719.3125 2.582031.3125 3.84375 0 2.238281-.558594 54.078125-14 54.078125-56-.019531-13.300781-8.261718-25.203125-20.707031-29.894531-12.445313-4.695313-26.496094-1.199219-35.292969 8.773437-8.796875-9.972656-22.847656-13.46875-35.292968-8.773437-12.445313 4.691406-20.6875 16.59375-20.707032 29.894531 0 41.761719 51.839844 55.199219 54.078125 56zm-22.078125-72c8.835938 0 16 7.164062 16 16 0 4.417969 3.582032 8 8 8 4.417969 0 8-3.582031 8-8 0-8.835938 7.164063-16 16-16 8.835938 0 16 7.164062 16 16 0 25.601562-32 37.121094-40 40-8-2.558594-40-14-40-40 0-8.835938 7.164063-16 16-16zm0 0" data-original="#000000" class="active-path" data-old_color="#ffffff" fill="#ffffff"/><path d="m336.535156 384c4.417969 0 8-3.582031 8-8v-32c0-13.253906-10.746094-24-24-24s-24 10.746094-24 24v32c0 4.417969 3.582032 8 8 8 4.417969 0 8-3.582031 8-8v-32c0-4.417969 3.582032-8 8-8 4.417969 0 8 3.582031 8 8v32c0 4.417969 3.582032 8 8 8zm0 0" data-original="#000000" class="active-path" data-old_color="#ffffff" fill="#ffffff"/><path d="m112.535156 384h32c4.417969 0 8-3.582031 8-8v-32c0-13.253906-10.746094-24-24-24s-24 10.746094-24 24v32c0 4.417969 3.582032 8 8 8zm8-40c0-4.417969 3.582032-8 8-8 4.417969 0 8 3.582031 8 8v24h-16zm0 0" data-original="#000000" class="active-path" data-old_color="#ffffff" fill="#ffffff"/><path d="m304.535156 464h-160c-4.417968 0-8 3.582031-8 8s3.582032 8 8 8h160c4.417969 0 8-3.582031 8-8s-3.582031-8-8-8zm0 0" data-original="#000000" class="active-path" data-old_color="#ffffff" fill="#ffffff"/><path d="m304.535156 416h32c4.417969 0 8-3.582031 8-8s-3.582031-8-8-8h-32c-4.417968 0-8 3.582031-8 8s3.582032 8 8 8zm0 0" data-original="#000000" class="active-path" data-old_color="#ffffff" fill="#ffffff"/><path d="m112.535156 416h32c4.417969 0 8-3.582031 8-8s-3.582031-8-8-8h-32c-4.417968 0-8 3.582031-8 8s3.582032 8 8 8zm0 0" data-original="#000000" class="active-path" data-old_color="#ffffff" fill="#ffffff"/><path d="m376.535156 250.960938c-4.417968 0-8 3.582031-8 8v173.039062h-88v-88c0-22.089844-17.910156-40-40-40h-32c-22.089844 0-40 17.910156-40 40v88h-88v-173.039062c0-4.417969-3.582031-8-8-8-4.417968 0-8 3.582031-8 8v181.039062c0 4.417969 3.582032 8 8 8h104c4.417969 0 8-3.582031 8-8v-96c0-13.253906 10.746094-24 24-24h8v120c0 4.417969 3.582032 8 8 8h152c4.417969 0 8-3.582031 8-8v-181.039062c0-4.417969-3.582031-8-8-8zm-136 69.039062c13.253906 0 24 10.746094 24 24v88h-32v-112zm0 0" data-original="#000000" class="active-path" data-old_color="#ffffff" fill="#ffffff"/></g> </svg>
