<?xml version="1.0"?>
<svg xmlns="http://www.w3.org/2000/svg" height="512px" viewBox="-6 0 512 512" width="512px" class=""><g><path d="m250.03125 0c-137.867188 0-250.03125 104.917969-250.03125 233.882812 0 66.863282 30.472656 129.957032 83.964844 174.585938v103.53125l100.730468-52.347656c21.238282 5.386718 43.179688 8.113281 65.339844 8.113281 137.867188 0 250.03125-104.917969 250.03125-233.882813 0-128.964843-112.167968-233.882812-250.035156-233.882812zm0 427.757812c-21.15625 0-42.0625-2.917968-62.132812-8.675781l-7.664063-2.199219-56.265625 29.242188v-57.101562l-7.804688-6.003907c-48.398437-37.246093-76.160156-91.605469-76.160156-149.136719 0-106.90625 94.21875-193.878906 210.027344-193.878906s210.027344 86.972656 210.027344 193.878906c0 106.902344-94.21875 193.875-210.027344 193.875zm122.359375-265.675781 26.585937 26.585938-117.667968 123.835937-58.179688-57.535156-92.246094 66.226562-26.644531-26.648437 116.300781-125.152344 57.742188 57.792969zm0 0" data-original="#000000" class="active-path" data-old_color="#ffffff" fill="#ffffff"/></g> </svg>
